<?xml version="1.0" encoding="utf-8"?>
<!-- Generator: Adobe Illustrator 27.9.0, SVG Export Plug-In . SVG Version: 6.00 Build 0)  -->
<svg version="1.1" id="Layer_1" xmlns="http://www.w3.org/2000/svg" xmlns:xlink="http://www.w3.org/1999/xlink" x="0px" y="0px"
	 viewBox="0 0 5000 5000" style="enable-background:new 0 0 5000 5000;" xml:space="preserve">
<style type="text/css">
	.st0{fill-rule:evenodd;clip-rule:evenodd;fill:#5093E1;}
</style>
<g>
	<path class="st0" d="M2499.75,991.46c-833.36,0-1508.9,675.54-1508.9,1508.9c0,833.33,675.54,1508.9,1508.9,1508.9
		c833.33,0,1508.87-675.57,1508.87-1508.9C4008.62,1667,3333.08,991.46,2499.75,991.46L2499.75,991.46z M2850.36,2092.71
		l-0.03,48.57h-0.07v652.76c0,155.62-61.3,303.64-171.33,413.68c-110.04,110.03-258.06,171.3-413.64,171.3
		c-155.62,0-303.61-61.27-413.63-171.3c-110.04-110.03-171.34-258.05-171.34-413.68c0-155.62,61.3-303.6,171.34-413.63
		c110.03-110.04,258.02-171.34,413.63-171.34h108.55v307.52h-108.55c-73.88,0-143.96,29.03-196.21,81.28
		c-52.24,52.24-81.24,122.3-81.24,196.17c0,73.88,29,143.96,81.24,196.21c52.25,52.21,122.34,81.27,196.21,81.27
		c73.88,0,143.96-29.06,196.21-81.27c52.21-52.25,81.24-122.3,81.24-195.57V1621.72h306.24l15.34,28.39
		c47.68,88.37,111.99,172.15,191.75,233.96c61.67,47.81,131.46,81.54,208.57,95.06l54.51,9.56l-58.5,296.47l-52.38-9.36
		c-62.39-11.15-123.65-30.08-181-57.11C2961.44,2187.64,2900.38,2145.73,2850.36,2092.71z"/>
</g>
</svg>
